<svg height="990" width="720" xmlns="http://www.w3.org/2000/svg">
<rect height="990" fill="#555" width="720"></rect>
<text fill="#7f7" font-family="Courier New" font-size="12" xml:space="preserve">
<tspan x="10" y="26">8 megabytes installed</tspan>
<tspan x="10" y="42"></tspan>
<tspan x="10" y="58">node_modules</tspan>
<tspan x="10" y="74">└─┬ crawler-js@2.0.1 </tspan>
<tspan x="10" y="90">  ├─┬ cheerio@0.13.1 </tspan>
<tspan x="10" y="106">  │ ├─┬ CSSselect@0.4.1 </tspan>
<tspan x="10" y="122">  │ │ ├── CSSwhat@0.4.7 </tspan>
<tspan x="10" y="138">  │ │ └── domutils@1.4.3 </tspan>
<tspan x="10" y="154">  │ ├── entities@0.5.0 </tspan>
<tspan x="10" y="170">  │ ├─┬ htmlparser2@3.4.0 </tspan>
<tspan x="10" y="186">  │ │ ├── domelementtype@1.3.0 </tspan>
<tspan x="10" y="202">  │ │ ├── domhandler@2.2.1 </tspan>
<tspan x="10" y="218">  │ │ ├── domutils@1.3.0 </tspan>
<tspan x="10" y="234">  │ │ └─┬ readable-stream@1.1.14 </tspan>
<tspan x="10" y="250">  │ │   ├── core-util-is@1.0.2 </tspan>
<tspan x="10" y="266">  │ │   ├── inherits@2.0.3 </tspan>
<tspan x="10" y="282">  │ │   ├── isarray@0.0.1 </tspan>
<tspan x="10" y="298">  │ │   └── string_decoder@0.10.31 </tspan>
<tspan x="10" y="314">  │ └── underscore@1.5.2 </tspan>
<tspan x="10" y="330">  ├── csvtojson@0.3.11 </tspan>
<tspan x="10" y="346">  ├─┬ mongoq@0.2.3 </tspan>
<tspan x="10" y="362">  │ ├── jquery-deferred@0.3.1 </tspan>
<tspan x="10" y="378">  │ └─┬ mongodb@2.2.26 </tspan>
<tspan x="10" y="394">  │   ├── es6-promise@3.2.1 </tspan>
<tspan x="10" y="410">  │   ├─┬ mongodb-core@2.1.10 </tspan>
<tspan x="10" y="426">  │   │ ├── bson@1.0.4 </tspan>
<tspan x="10" y="442">  │   │ └─┬ require_optional@1.0.0 </tspan>
<tspan x="10" y="458">  │   │   ├── resolve-from@2.0.0 </tspan>
<tspan x="10" y="474">  │   │   └── semver@5.3.0 </tspan>
<tspan x="10" y="490">  │   └─┬ readable-stream@2.2.7 </tspan>
<tspan x="10" y="506">  │     ├── buffer-shims@1.0.0 </tspan>
<tspan x="10" y="522">  │     ├── isarray@1.0.0 </tspan>
<tspan x="10" y="538">  │     ├── process-nextick-args@1.0.7 </tspan>
<tspan x="10" y="554">  │     ├── string_decoder@1.0.0 </tspan>
<tspan x="10" y="570">  │     └── util-deprecate@1.0.2 </tspan>
<tspan x="10" y="586">  ├── querystring@0.2.0 </tspan>
<tspan x="10" y="602">  └─┬ request@2.34.0 </tspan>
<tspan x="10" y="618">    ├── aws-sign2@0.5.0 </tspan>
<tspan x="10" y="634">    ├── forever-agent@0.5.2 </tspan>
<tspan x="10" y="650">    ├─┬ form-data@0.1.4 </tspan>
<tspan x="10" y="666">    │ ├── async@0.9.2 </tspan>
<tspan x="10" y="682">    │ └─┬ combined-stream@0.0.7 </tspan>
<tspan x="10" y="698">    │   └── delayed-stream@0.0.5 </tspan>
<tspan x="10" y="714">    ├─┬ hawk@1.0.0 </tspan>
<tspan x="10" y="730">    │ ├── boom@0.4.2 </tspan>
<tspan x="10" y="746">    │ ├── cryptiles@0.2.2 </tspan>
<tspan x="10" y="762">    │ ├── hoek@0.9.1 </tspan>
<tspan x="10" y="778">    │ └── sntp@0.2.4 </tspan>
<tspan x="10" y="794">    ├─┬ http-signature@0.10.1 </tspan>
<tspan x="10" y="810">    │ ├── asn1@0.1.11 </tspan>
<tspan x="10" y="826">    │ ├── assert-plus@0.1.5 </tspan>
<tspan x="10" y="842">    │ └── ctype@0.5.3 </tspan>
<tspan x="10" y="858">    ├── json-stringify-safe@5.0.1 </tspan>
<tspan x="10" y="874">    ├── mime@1.2.11 </tspan>
<tspan x="10" y="890">    ├── node-uuid@1.4.8 </tspan>
<tspan x="10" y="906">    ├── oauth-sign@0.3.0 </tspan>
<tspan x="10" y="922">    ├── qs@0.6.6 </tspan>
<tspan x="10" y="938">    ├─┬ tough-cookie@2.3.2 </tspan>
<tspan x="10" y="954">    │ └── punycode@1.4.1 </tspan>
<tspan x="10" y="970">    └── tunnel-agent@0.3.0</tspan>
</text>
</svg>
